<mxfile host="Electron" agent="Mozilla/5.0 (Macintosh; Intel Mac OS X 10_15_7) AppleWebKit/537.36 (KHTML, like Gecko) draw.io/26.0.4 Chrome/128.0.6613.186 Electron/32.2.5 Safari/537.36" version="26.0.4">
  <diagram name="Page-1" id="j_bGE3DNDRFiTGZkZupw">
    <mxGraphModel dx="2228" dy="1666" grid="0" gridSize="10" guides="1" tooltips="1" connect="1" arrows="1" fold="1" page="0" pageScale="1" pageWidth="827" pageHeight="1169" math="0" shadow="0">
      <root>
        <mxCell id="0" />
        <mxCell id="1" parent="0" />
        <object placeholders="1" c4Name="InsureTech Prod" c4Type="SystemScopeBoundary" c4Application="Виртуальная машина" label="&lt;font style=&quot;font-size: 16px&quot;&gt;&lt;b&gt;&lt;div style=&quot;text-align: left&quot;&gt;%c4Name%&lt;/div&gt;&lt;/b&gt;&lt;/font&gt;&lt;div style=&quot;text-align: left&quot;&gt;[%c4Application%]&lt;/div&gt;" id="TXG6mXQ_d2cR05oFhZtK-1">
          <mxCell style="rounded=1;fontSize=11;whiteSpace=wrap;html=1;dashed=1;arcSize=20;fillColor=none;strokeColor=#666666;fontColor=#333333;labelBackgroundColor=light-dark(#9df09f, #ededed);align=left;verticalAlign=bottom;labelBorderColor=none;spacingTop=0;spacing=10;dashPattern=8 4;metaEdit=1;rotatable=0;perimeter=rectanglePerimeter;noLabel=0;labelPadding=0;allowArrows=0;connectable=0;expand=0;recursiveResize=0;editable=1;pointerEvents=0;absoluteArcSize=1;points=[[0.25,0,0],[0.5,0,0],[0.75,0,0],[1,0.25,0],[1,0.5,0],[1,0.75,0],[0.75,1,0],[0.5,1,0],[0.25,1,0],[0,0.75,0],[0,0.5,0],[0,0.25,0]];" parent="1" vertex="1">
            <mxGeometry x="920" y="510" width="1103" height="1124" as="geometry" />
          </mxCell>
        </object>
        <object placeholders="1" c4Type="core-db" c4Container="Container" c4Technology="PostgreSQL" c4Description="БД используется для хранения тарифов страховых компаний, а также заявок клиентов на страховые продукты" label="&lt;font style=&quot;font-size: 16px&quot;&gt;&lt;b&gt;%c4Type%&lt;/b&gt;&lt;/font&gt;&lt;div&gt;[%c4Container%:&amp;nbsp;%c4Technology%]&lt;/div&gt;&lt;br&gt;&lt;div&gt;&lt;font style=&quot;font-size: 11px&quot;&gt;&lt;font color=&quot;#E6E6E6&quot;&gt;%c4Description%&lt;/font&gt;&lt;/div&gt;" id="TXG6mXQ_d2cR05oFhZtK-2">
          <mxCell style="shape=cylinder3;size=5.9999511718749545;whiteSpace=wrap;html=1;boundedLbl=1;rounded=0;labelBackgroundColor=none;fillColor=#23A2D9;fontSize=12;fontColor=#ffffff;align=center;strokeColor=#0E7DAD;metaEdit=1;points=[[0.5,0,0],[1,0.25,0],[1,0.5,0],[1,0.75,0],[0.5,1,0],[0,0.75,0],[0,0.5,0],[0,0.25,0]];resizable=0;" parent="1" vertex="1">
            <mxGeometry x="960" y="1364" width="240" height="120" as="geometry" />
          </mxCell>
        </object>
        <object placeholders="1" c4Name="core-app" c4Type="Container" c4Technology="Kotlin, SpringBoot" c4Description="Монолитное приложение:&#xa;• отображает данные о доступных страховых продуктах&#xa;• оформляет новые страховки&#xa;• отображает информацию о купленных страховках" label="&lt;font style=&quot;font-size: 16px&quot;&gt;&lt;b&gt;%c4Name%&lt;/b&gt;&lt;/font&gt;&lt;div&gt;[%c4Type%: %c4Technology%]&lt;/div&gt;&lt;br&gt;&lt;div&gt;&lt;font style=&quot;font-size: 11px&quot;&gt;&lt;font color=&quot;#E6E6E6&quot;&gt;%c4Description%&lt;/font&gt;&lt;/div&gt;" id="TXG6mXQ_d2cR05oFhZtK-3">
          <mxCell style="rounded=1;whiteSpace=wrap;html=1;fontSize=11;labelBackgroundColor=none;fillColor=#23A2D9;fontColor=#ffffff;align=center;arcSize=10;strokeColor=#0E7DAD;metaEdit=1;resizable=0;points=[[0.25,0,0],[0.5,0,0],[0.75,0,0],[1,0.25,0],[1,0.5,0],[1,0.75,0],[0.75,1,0],[0.5,1,0],[0.25,1,0],[0,0.75,0],[0,0.5,0],[0,0.25,0]];" parent="1" vertex="1">
            <mxGeometry x="960" y="940" width="240" height="120" as="geometry" />
          </mxCell>
        </object>
        <object placeholders="1" c4Type="InsureTech Web" c4Container="Container" c4Technology="JavaScript, React" c4Description="Веб-приложение InsureTech" label="&lt;font style=&quot;font-size: 16px&quot;&gt;&lt;b&gt;%c4Type%&lt;/b&gt;&lt;/font&gt;&lt;div&gt;[%c4Container%:&amp;nbsp;%c4Technology%]&lt;/div&gt;&lt;br&gt;&lt;div&gt;&lt;font style=&quot;font-size: 11px&quot;&gt;&lt;font color=&quot;#E6E6E6&quot;&gt;%c4Description%&lt;/font&gt;&lt;/div&gt;" id="TXG6mXQ_d2cR05oFhZtK-4">
          <mxCell style="shape=mxgraph.c4.webBrowserContainer2;whiteSpace=wrap;html=1;boundedLbl=1;rounded=0;labelBackgroundColor=none;strokeColor=#118ACD;fillColor=#23A2D9;strokeColor=#118ACD;strokeColor2=#0E7DAD;fontSize=12;fontColor=#ffffff;align=center;metaEdit=1;points=[[0.5,0,0],[1,0.25,0],[1,0.5,0],[1,0.75,0],[0.5,1,0],[0,0.75,0],[0,0.5,0],[0,0.25,0]];resizable=0;" parent="1" vertex="1">
            <mxGeometry x="960" y="590" width="240" height="160" as="geometry" />
          </mxCell>
        </object>
        <object placeholders="1" c4Type="Relationship" c4Technology="REST" c4Description="1. Получения тарифов&#xa;2. Создание заявок на страховки&#xa;3. Создание заявок на ОСАГО" label="&lt;div style=&quot;text-align: left&quot;&gt;&lt;div style=&quot;text-align: center&quot;&gt;&lt;b&gt;%c4Description%&lt;/b&gt;&lt;/div&gt;&lt;div style=&quot;text-align: center&quot;&gt;[%c4Technology%]&lt;/div&gt;&lt;/div&gt;" id="TXG6mXQ_d2cR05oFhZtK-5">
          <mxCell style="endArrow=blockThin;html=1;fontSize=10;fontColor=#404040;strokeWidth=1;endFill=1;strokeColor=#828282;elbow=vertical;metaEdit=1;endSize=14;startSize=14;jumpStyle=arc;jumpSize=16;rounded=0;edgeStyle=orthogonalEdgeStyle;" parent="1" source="TXG6mXQ_d2cR05oFhZtK-4" target="TXG6mXQ_d2cR05oFhZtK-3" edge="1">
            <mxGeometry width="240" relative="1" as="geometry">
              <mxPoint x="1020" y="800" as="sourcePoint" />
              <mxPoint x="1260" y="800" as="targetPoint" />
              <Array as="points">
                <mxPoint x="1080" y="670" />
              </Array>
            </mxGeometry>
          </mxCell>
        </object>
        <object placeholders="1" c4Type="Relationship" c4Technology="TCP" c4Description="Работа с данными" label="&lt;div style=&quot;text-align: left&quot;&gt;&lt;div style=&quot;text-align: center&quot;&gt;&lt;b&gt;%c4Description%&lt;/b&gt;&lt;/div&gt;&lt;div style=&quot;text-align: center&quot;&gt;[%c4Technology%]&lt;/div&gt;&lt;/div&gt;" id="TXG6mXQ_d2cR05oFhZtK-6">
          <mxCell style="endArrow=blockThin;html=1;fontSize=10;fontColor=#404040;strokeWidth=1;endFill=1;strokeColor=#828282;elbow=vertical;metaEdit=1;endSize=14;startSize=14;jumpStyle=arc;jumpSize=16;rounded=0;edgeStyle=orthogonalEdgeStyle;entryX=0.5;entryY=0;entryDx=0;entryDy=0;entryPerimeter=0;" parent="1" target="TXG6mXQ_d2cR05oFhZtK-2" edge="1">
            <mxGeometry width="240" relative="1" as="geometry">
              <mxPoint x="1030" y="1060" as="sourcePoint" />
              <mxPoint x="1030" y="1364" as="targetPoint" />
            </mxGeometry>
          </mxCell>
        </object>
        <object placeholders="1" c4Name="Системы партнеров" c4Type="Software System" c4Description="Системы партнеров, интегрирующие страховые услуги в свои продукты" label="&lt;font style=&quot;font-size: 16px&quot;&gt;&lt;b&gt;%c4Name%&lt;/b&gt;&lt;/font&gt;&lt;div&gt;[%c4Type%]&lt;/div&gt;&lt;br&gt;&lt;div&gt;&lt;font style=&quot;font-size: 11px&quot;&gt;&lt;font color=&quot;#cccccc&quot;&gt;%c4Description%&lt;/font&gt;&lt;/div&gt;" id="TXG6mXQ_d2cR05oFhZtK-7">
          <mxCell style="rounded=1;whiteSpace=wrap;html=1;labelBackgroundColor=none;fillColor=#8C8496;fontColor=#ffffff;align=center;arcSize=10;strokeColor=#736782;metaEdit=1;resizable=0;points=[[0.25,0,0],[0.5,0,0],[0.75,0,0],[1,0.25,0],[1,0.5,0],[1,0.75,0],[0.75,1,0],[0.5,1,0],[0.25,1,0],[0,0.75,0],[0,0.5,0],[0,0.25,0]];" parent="1" vertex="1">
            <mxGeometry x="510" y="1025" width="240" height="120" as="geometry" />
          </mxCell>
        </object>
        <object placeholders="1" c4Name="Системы партнеров" c4Type="Software System" c4Description="Системы партнеров, интегрирующие страховые услуги в свои продукты" label="&lt;font style=&quot;font-size: 16px&quot;&gt;&lt;b&gt;%c4Name%&lt;/b&gt;&lt;/font&gt;&lt;div&gt;[%c4Type%]&lt;/div&gt;&lt;br&gt;&lt;div&gt;&lt;font style=&quot;font-size: 11px&quot;&gt;&lt;font color=&quot;#cccccc&quot;&gt;%c4Description%&lt;/font&gt;&lt;/div&gt;" id="TXG6mXQ_d2cR05oFhZtK-8">
          <mxCell style="rounded=1;whiteSpace=wrap;html=1;labelBackgroundColor=none;fillColor=#8C8496;fontColor=#ffffff;align=center;arcSize=10;strokeColor=#736782;metaEdit=1;resizable=0;points=[[0.25,0,0],[0.5,0,0],[0.75,0,0],[1,0.25,0],[1,0.5,0],[1,0.75,0],[0.75,1,0],[0.5,1,0],[0.25,1,0],[0,0.75,0],[0,0.5,0],[0,0.25,0]];" parent="1" vertex="1">
            <mxGeometry x="520" y="1035" width="240" height="120" as="geometry" />
          </mxCell>
        </object>
        <object placeholders="1" c4Name="Системы партнёров" c4Type="Software System" c4Description="Системы партнёров, интегрирующие страховые услуги в свои продукты" label="&lt;font style=&quot;font-size: 16px&quot;&gt;&lt;b&gt;%c4Name%&lt;/b&gt;&lt;/font&gt;&lt;div&gt;[%c4Type%]&lt;/div&gt;&lt;br&gt;&lt;div&gt;&lt;font style=&quot;font-size: 11px&quot;&gt;&lt;font color=&quot;#cccccc&quot;&gt;%c4Description%&lt;/font&gt;&lt;/div&gt;" id="TXG6mXQ_d2cR05oFhZtK-9">
          <mxCell style="rounded=1;whiteSpace=wrap;html=1;labelBackgroundColor=none;fillColor=#8C8496;fontColor=#ffffff;align=center;arcSize=10;strokeColor=#736782;metaEdit=1;resizable=0;points=[[0.25,0,0],[0.5,0,0],[0.75,0,0],[1,0.25,0],[1,0.5,0],[1,0.75,0],[0.75,1,0],[0.5,1,0],[0.25,1,0],[0,0.75,0],[0,0.5,0],[0,0.25,0]];" parent="1" vertex="1">
            <mxGeometry x="530" y="1045" width="240" height="120" as="geometry" />
          </mxCell>
        </object>
        <object placeholders="1" c4Type="Relationship" c4Technology="REST" c4Description="Оформление страховок" label="&lt;div style=&quot;text-align: left&quot;&gt;&lt;div style=&quot;text-align: center&quot;&gt;&lt;b&gt;%c4Description%&lt;/b&gt;&lt;/div&gt;&lt;div style=&quot;text-align: center&quot;&gt;[%c4Technology%]&lt;/div&gt;&lt;/div&gt;" id="TXG6mXQ_d2cR05oFhZtK-10">
          <mxCell style="endArrow=blockThin;html=1;fontSize=10;fontColor=#404040;strokeWidth=1;endFill=1;strokeColor=#828282;elbow=vertical;metaEdit=1;endSize=14;startSize=14;jumpStyle=arc;jumpSize=16;rounded=0;edgeStyle=orthogonalEdgeStyle;" parent="1" source="TXG6mXQ_d2cR05oFhZtK-9" target="TXG6mXQ_d2cR05oFhZtK-3" edge="1">
            <mxGeometry x="-0.2075" width="240" relative="1" as="geometry">
              <mxPoint x="520" y="925" as="sourcePoint" />
              <mxPoint x="960" y="1105" as="targetPoint" />
              <Array as="points">
                <mxPoint x="840" y="1105" />
                <mxPoint x="840" y="1030" />
              </Array>
              <mxPoint as="offset" />
            </mxGeometry>
          </mxCell>
        </object>
        <object placeholders="1" c4Name="Системы страховых компаний" c4Type="Software System" c4Description="Системы страховых компаний, предоставляющие API для получения актуальных тарифов, андерайтинга и оформления страховых продуктов" label="&lt;font style=&quot;font-size: 16px&quot;&gt;&lt;b&gt;%c4Name%&lt;/b&gt;&lt;/font&gt;&lt;div&gt;[%c4Type%]&lt;/div&gt;&lt;br&gt;&lt;div&gt;&lt;font style=&quot;font-size: 11px&quot;&gt;&lt;font color=&quot;#cccccc&quot;&gt;%c4Description%&lt;/font&gt;&lt;/div&gt;" id="TXG6mXQ_d2cR05oFhZtK-11">
          <mxCell style="rounded=1;whiteSpace=wrap;html=1;labelBackgroundColor=none;fillColor=#8C8496;fontColor=#ffffff;align=center;arcSize=10;strokeColor=#736782;metaEdit=1;resizable=0;points=[[0.25,0,0],[0.5,0,0],[0.75,0,0],[1,0.25,0],[1,0.5,0],[1,0.75,0],[0.75,1,0],[0.5,1,0],[0.25,1,0],[0,0.75,0],[0,0.5,0],[0,0.25,0]];" parent="1" vertex="1">
            <mxGeometry x="2090" y="1050" width="240" height="120" as="geometry" />
          </mxCell>
        </object>
        <object placeholders="1" c4Name="Системы страховых компаний" c4Type="Software System" c4Description="Системы страховых компаний, предоставляющие API для получения актуальных тарифов, андерайтинга и оформления страховых продуктов" label="&lt;font style=&quot;font-size: 16px&quot;&gt;&lt;b&gt;%c4Name%&lt;/b&gt;&lt;/font&gt;&lt;div&gt;[%c4Type%]&lt;/div&gt;&lt;br&gt;&lt;div&gt;&lt;font style=&quot;font-size: 11px&quot;&gt;&lt;font color=&quot;#cccccc&quot;&gt;%c4Description%&lt;/font&gt;&lt;/div&gt;" id="TXG6mXQ_d2cR05oFhZtK-12">
          <mxCell style="rounded=1;whiteSpace=wrap;html=1;labelBackgroundColor=none;fillColor=#8C8496;fontColor=#ffffff;align=center;arcSize=10;strokeColor=#736782;metaEdit=1;resizable=0;points=[[0.25,0,0],[0.5,0,0],[0.75,0,0],[1,0.25,0],[1,0.5,0],[1,0.75,0],[0.75,1,0],[0.5,1,0],[0.25,1,0],[0,0.75,0],[0,0.5,0],[0,0.25,0]];" parent="1" vertex="1">
            <mxGeometry x="2100" y="1060" width="240" height="120" as="geometry" />
          </mxCell>
        </object>
        <object placeholders="1" c4Name="Системы страховых компаний" c4Type="Software System" c4Description="Предоставляют API для получения актуальных тарифов, андерайтинга и оформления страховых продуктов" label="&lt;font style=&quot;font-size: 16px&quot;&gt;&lt;b&gt;%c4Name%&lt;/b&gt;&lt;/font&gt;&lt;div&gt;[%c4Type%]&lt;/div&gt;&lt;br&gt;&lt;div&gt;&lt;font style=&quot;font-size: 11px&quot;&gt;&lt;font color=&quot;#cccccc&quot;&gt;%c4Description%&lt;/font&gt;&lt;/div&gt;" id="TXG6mXQ_d2cR05oFhZtK-13">
          <mxCell style="rounded=1;whiteSpace=wrap;html=1;labelBackgroundColor=none;fillColor=#8C8496;fontColor=#ffffff;align=center;arcSize=9;strokeColor=#736782;metaEdit=1;resizable=0;points=[[0.25,0,0],[0.5,0,0],[0.75,0,0],[1,0.25,0],[1,0.5,0],[1,0.75,0],[0.75,1,0],[0.5,1,0],[0.25,1,0],[0,0.75,0],[0,0.5,0],[0,0.25,0]];" parent="1" vertex="1">
            <mxGeometry x="2110" y="1070" width="240" height="120" as="geometry" />
          </mxCell>
        </object>
        <object placeholders="1" c4Name="ins-product-aggregator" c4Type="Container" c4Technology="Kotlin, SpringBoot" c4Description="Сервис для интеграции со страховыми компаниями с целью получения информации по страховым продуктам. Предоставляет единый API для core-app" label="&lt;font style=&quot;font-size: 16px&quot;&gt;&lt;b&gt;%c4Name%&lt;/b&gt;&lt;/font&gt;&lt;div&gt;[%c4Type%: %c4Technology%]&lt;/div&gt;&lt;br&gt;&lt;div&gt;&lt;font style=&quot;font-size: 11px&quot;&gt;&lt;font color=&quot;#E6E6E6&quot;&gt;%c4Description%&lt;/font&gt;&lt;/div&gt;" id="TXG6mXQ_d2cR05oFhZtK-14">
          <mxCell style="rounded=1;whiteSpace=wrap;html=1;fontSize=11;labelBackgroundColor=none;fillColor=#23A2D9;fontColor=#ffffff;align=center;arcSize=10;strokeColor=#0E7DAD;metaEdit=1;resizable=0;points=[[0.25,0,0],[0.5,0,0],[0.75,0,0],[1,0.25,0],[1,0.5,0],[1,0.75,0],[0.75,1,0],[0.5,1,0],[0.25,1,0],[0,0.75,0],[0,0.5,0],[0,0.25,0]];" parent="1" vertex="1">
            <mxGeometry x="1537" y="993" width="240" height="120" as="geometry" />
          </mxCell>
        </object>
        <object placeholders="1" c4Type="Relationship" c4Technology="REST / SOAP / GraphQL" c4Description="Получение информации &#xa;по продуктам и тарифам, &#xa;раз в 15 мин" label="&lt;div style=&quot;text-align: left&quot;&gt;&lt;div style=&quot;text-align: center&quot;&gt;&lt;b&gt;%c4Description%&lt;/b&gt;&lt;/div&gt;&lt;div style=&quot;text-align: center&quot;&gt;[%c4Technology%]&lt;/div&gt;&lt;/div&gt;" id="TXG6mXQ_d2cR05oFhZtK-15">
          <mxCell style="endArrow=blockThin;html=1;fontSize=10;fontColor=#404040;strokeWidth=1;endFill=1;strokeColor=#828282;elbow=vertical;metaEdit=1;endSize=14;startSize=14;jumpStyle=arc;jumpSize=16;rounded=0;edgeStyle=orthogonalEdgeStyle;labelBackgroundColor=light-dark(#ffffff, #ededed);exitX=1;exitY=0.75;exitDx=0;exitDy=0;exitPerimeter=0;" parent="1" source="TXG6mXQ_d2cR05oFhZtK-14" target="TXG6mXQ_d2cR05oFhZtK-11" edge="1">
            <mxGeometry x="-0.0156" y="2" width="240" relative="1" as="geometry">
              <mxPoint x="1340" y="900" as="sourcePoint" />
              <mxPoint x="1580" y="900" as="targetPoint" />
              <mxPoint as="offset" />
              <Array as="points">
                <mxPoint x="1777" y="1090" />
              </Array>
            </mxGeometry>
          </mxCell>
        </object>
        <object placeholders="1" c4Name="ins-comp-settlement" c4Type="Container" c4Technology="Kotlin, SpringBoot" c4Description="Сервис для осуществления взаиморасчётов со страховыми компаниями" label="&lt;font style=&quot;font-size: 16px&quot;&gt;&lt;b&gt;%c4Name%&lt;/b&gt;&lt;/font&gt;&lt;div&gt;[%c4Type%: %c4Technology%]&lt;/div&gt;&lt;br&gt;&lt;div&gt;&lt;font style=&quot;font-size: 11px&quot;&gt;&lt;font color=&quot;#E6E6E6&quot;&gt;%c4Description%&lt;/font&gt;&lt;/div&gt;" id="TXG6mXQ_d2cR05oFhZtK-16">
          <mxCell style="rounded=1;whiteSpace=wrap;html=1;fontSize=11;labelBackgroundColor=none;fillColor=#23A2D9;fontColor=#ffffff;align=center;arcSize=10;strokeColor=#0E7DAD;metaEdit=1;resizable=0;points=[[0.25,0,0],[0.5,0,0],[0.75,0,0],[1,0.25,0],[1,0.5,0],[1,0.75,0],[0.75,1,0],[0.5,1,0],[0.25,1,0],[0,0.75,0],[0,0.5,0],[0,0.25,0]];" parent="1" vertex="1">
            <mxGeometry x="1530" y="1244" width="240" height="120" as="geometry" />
          </mxCell>
        </object>
        <object placeholders="1" c4Name="Клиент" c4Type="Person" c4Description="Клиент" label="&lt;font style=&quot;font-size: 16px&quot;&gt;&lt;b&gt;%c4Name%&lt;/b&gt;&lt;/font&gt;&lt;div&gt;[%c4Type%]&lt;/div&gt;&lt;br&gt;&lt;div&gt;&lt;font style=&quot;font-size: 11px&quot;&gt;&lt;font color=&quot;#cccccc&quot;&gt;%c4Description%&lt;/font&gt;&lt;/div&gt;" id="TXG6mXQ_d2cR05oFhZtK-17">
          <mxCell style="html=1;fontSize=11;dashed=0;whiteSpace=wrap;fillColor=#083F75;strokeColor=#06315C;fontColor=#ffffff;shape=mxgraph.c4.person2;align=center;metaEdit=1;points=[[0.5,0,0],[1,0.5,0],[1,0.75,0],[0.75,1,0],[0.5,1,0],[0.25,1,0],[0,0.75,0],[0,0.5,0]];resizable=0;" parent="1" vertex="1">
            <mxGeometry x="980" y="230" width="200" height="180" as="geometry" />
          </mxCell>
        </object>
        <object placeholders="1" c4Type="Relationship" id="TXG6mXQ_d2cR05oFhZtK-18">
          <mxCell style="endArrow=blockThin;html=1;fontSize=10;fontColor=#404040;strokeWidth=1;endFill=1;strokeColor=#828282;elbow=vertical;metaEdit=1;endSize=14;startSize=14;jumpStyle=arc;jumpSize=16;rounded=0;edgeStyle=orthogonalEdgeStyle;" parent="1" source="TXG6mXQ_d2cR05oFhZtK-17" target="TXG6mXQ_d2cR05oFhZtK-4" edge="1">
            <mxGeometry width="240" relative="1" as="geometry">
              <mxPoint x="1120" y="520" as="sourcePoint" />
              <mxPoint x="1360" y="520" as="targetPoint" />
            </mxGeometry>
          </mxCell>
        </object>
        <object placeholders="1" c4Type="ins-comp-settlement-db" c4Container="Container" c4Technology="PostgreSQL" c4Description="БД используется для хранения данных об оформленных страховках и условиях взаиморасчётов с клиентами" label="&lt;font style=&quot;font-size: 16px&quot;&gt;&lt;b&gt;%c4Type%&lt;/b&gt;&lt;/font&gt;&lt;div&gt;[%c4Container%:&amp;nbsp;%c4Technology%]&lt;/div&gt;&lt;br&gt;&lt;div&gt;&lt;font style=&quot;font-size: 11px&quot;&gt;&lt;font color=&quot;#E6E6E6&quot;&gt;%c4Description%&lt;/font&gt;&lt;/div&gt;" id="TXG6mXQ_d2cR05oFhZtK-19">
          <mxCell style="shape=cylinder3;size=8.50981588924617;whiteSpace=wrap;html=1;boundedLbl=1;rounded=0;labelBackgroundColor=none;fillColor=#23A2D9;fontSize=12;fontColor=#ffffff;align=center;strokeColor=#0E7DAD;metaEdit=1;points=[[0.5,0,0],[1,0.25,0],[1,0.5,0],[1,0.75,0],[0.5,1,0],[0,0.75,0],[0,0.5,0],[0,0.25,0]];resizable=0;" parent="1" vertex="1">
            <mxGeometry x="1530" y="1484" width="240" height="120" as="geometry" />
          </mxCell>
        </object>
        <object placeholders="1" c4Type="Relationship" c4Technology="TCP" c4Description="Работа с данными" label="&lt;div style=&quot;text-align: left&quot;&gt;&lt;div style=&quot;text-align: center&quot;&gt;&lt;b&gt;%c4Description%&lt;/b&gt;&lt;/div&gt;&lt;div style=&quot;text-align: center&quot;&gt;[%c4Technology%]&lt;/div&gt;&lt;/div&gt;" id="TXG6mXQ_d2cR05oFhZtK-20">
          <mxCell style="endArrow=blockThin;html=1;fontSize=10;fontColor=#404040;strokeWidth=1;endFill=1;strokeColor=#828282;elbow=vertical;metaEdit=1;endSize=14;startSize=14;jumpStyle=arc;jumpSize=16;rounded=0;edgeStyle=orthogonalEdgeStyle;" parent="1" source="TXG6mXQ_d2cR05oFhZtK-16" target="TXG6mXQ_d2cR05oFhZtK-19" edge="1">
            <mxGeometry width="240" relative="1" as="geometry">
              <mxPoint x="1210" y="1310" as="sourcePoint" />
              <mxPoint x="1210" y="1430" as="targetPoint" />
            </mxGeometry>
          </mxCell>
        </object>
        <object placeholders="1" c4Type="Relationship" c4Technology="REST / SOAP / GraphQL" c4Description="Передача данных &#xa;для взаиморасчётов" label="&lt;div style=&quot;text-align: left&quot;&gt;&lt;div style=&quot;text-align: center&quot;&gt;&lt;b&gt;%c4Description%&lt;/b&gt;&lt;/div&gt;&lt;div style=&quot;text-align: center&quot;&gt;[%c4Technology%]&lt;/div&gt;&lt;/div&gt;" id="TXG6mXQ_d2cR05oFhZtK-21">
          <mxCell style="endArrow=blockThin;html=1;fontSize=10;fontColor=#404040;strokeWidth=1;endFill=1;strokeColor=#828282;elbow=vertical;metaEdit=1;endSize=14;startSize=14;jumpStyle=arc;jumpSize=16;rounded=0;edgeStyle=orthogonalEdgeStyle;entryX=0;entryY=0.795;entryDx=0;entryDy=0;entryPerimeter=0;exitX=1;exitY=0.5;exitDx=0;exitDy=0;exitPerimeter=0;" parent="1" source="TXG6mXQ_d2cR05oFhZtK-16" target="TXG6mXQ_d2cR05oFhZtK-11" edge="1">
            <mxGeometry x="-0.2207" width="240" relative="1" as="geometry">
              <mxPoint x="1630" y="1010" as="sourcePoint" />
              <mxPoint x="1820" y="1100" as="targetPoint" />
              <mxPoint as="offset" />
              <Array as="points">
                <mxPoint x="1930" y="1304" />
                <mxPoint x="1930" y="1145" />
              </Array>
            </mxGeometry>
          </mxCell>
        </object>
        <object placeholders="1" c4Name="Платёжный сервис" c4Type="Software System" c4Description="Внешний платёжный сервис, через который осуществляется оплата страховок. Деньги уходят на счета страховых компаний" label="&lt;font style=&quot;font-size: 16px&quot;&gt;&lt;b&gt;%c4Name%&lt;/b&gt;&lt;/font&gt;&lt;div&gt;[%c4Type%]&lt;/div&gt;&lt;br&gt;&lt;div&gt;&lt;font style=&quot;font-size: 11px&quot;&gt;&lt;font color=&quot;#cccccc&quot;&gt;%c4Description%&lt;/font&gt;&lt;/div&gt;" id="TXG6mXQ_d2cR05oFhZtK-22">
          <mxCell style="rounded=1;whiteSpace=wrap;html=1;labelBackgroundColor=none;fillColor=#8C8496;fontColor=#ffffff;align=center;arcSize=10;strokeColor=#736782;metaEdit=1;resizable=0;points=[[0.25,0,0],[0.5,0,0],[0.75,0,0],[1,0.25,0],[1,0.5,0],[1,0.75,0],[0.75,1,0],[0.5,1,0],[0.25,1,0],[0,0.75,0],[0,0.5,0],[0,0.25,0]];" parent="1" vertex="1">
            <mxGeometry x="510" y="830" width="240" height="120" as="geometry" />
          </mxCell>
        </object>
        <object placeholders="1" c4Type="Relationship" c4Technology="HTTP" c4Description="Проведение оплаты &#xa;за страховки" label="&lt;div style=&quot;text-align: left&quot;&gt;&lt;div style=&quot;text-align: center&quot;&gt;&lt;b&gt;%c4Description%&lt;/b&gt;&lt;/div&gt;&lt;div style=&quot;text-align: center&quot;&gt;[%c4Technology%]&lt;/div&gt;&lt;/div&gt;" id="TXG6mXQ_d2cR05oFhZtK-23">
          <mxCell style="endArrow=blockThin;html=1;fontSize=10;fontColor=#404040;strokeWidth=1;endFill=1;strokeColor=#828282;elbow=vertical;metaEdit=1;endSize=14;startSize=14;jumpStyle=arc;jumpSize=16;rounded=0;edgeStyle=orthogonalEdgeStyle;" parent="1" source="TXG6mXQ_d2cR05oFhZtK-3" target="TXG6mXQ_d2cR05oFhZtK-22" edge="1">
            <mxGeometry x="0.1034" width="240" relative="1" as="geometry">
              <mxPoint x="780" y="1115" as="sourcePoint" />
              <mxPoint x="970" y="1040" as="targetPoint" />
              <Array as="points">
                <mxPoint x="840" y="970" />
                <mxPoint x="840" y="890" />
              </Array>
              <mxPoint as="offset" />
            </mxGeometry>
          </mxCell>
        </object>
        <object placeholders="1" c4Type="Relationship" c4Technology="HTTP" c4Description="Проведение оплаты &#xa;за страховки (redirect)" label="&lt;div style=&quot;text-align: left&quot;&gt;&lt;div style=&quot;text-align: center&quot;&gt;&lt;b&gt;%c4Description%&lt;/b&gt;&lt;/div&gt;&lt;div style=&quot;text-align: center&quot;&gt;[%c4Technology%]&lt;/div&gt;&lt;/div&gt;" id="TXG6mXQ_d2cR05oFhZtK-24">
          <mxCell style="endArrow=blockThin;html=1;fontSize=10;fontColor=#404040;strokeWidth=1;endFill=1;strokeColor=#828282;elbow=vertical;metaEdit=1;endSize=14;startSize=14;jumpStyle=arc;jumpSize=16;rounded=0;edgeStyle=orthogonalEdgeStyle;exitX=0.007;exitY=0.417;exitDx=0;exitDy=0;exitPerimeter=0;" parent="1" source="TXG6mXQ_d2cR05oFhZtK-4" target="TXG6mXQ_d2cR05oFhZtK-22" edge="1">
            <mxGeometry x="-0.1555" width="240" relative="1" as="geometry">
              <mxPoint x="970" y="980" as="sourcePoint" />
              <mxPoint x="760" y="900" as="targetPoint" />
              <Array as="points">
                <mxPoint x="610" y="657" />
              </Array>
              <mxPoint as="offset" />
            </mxGeometry>
          </mxCell>
        </object>
        <object placeholders="1" c4Name="client-info" c4Type="Container" c4Technology="Kotlin, SpringBoot" c4Description="Сервис для учёта клиентских данных" label="&lt;font style=&quot;font-size: 16px&quot;&gt;&lt;b&gt;%c4Name%&lt;/b&gt;&lt;/font&gt;&lt;div&gt;[%c4Type%: %c4Technology%]&lt;/div&gt;&lt;br&gt;&lt;div&gt;&lt;font style=&quot;font-size: 11px&quot;&gt;&lt;font color=&quot;#E6E6E6&quot;&gt;%c4Description%&lt;/font&gt;&lt;/div&gt;" id="TXG6mXQ_d2cR05oFhZtK-25">
          <mxCell style="rounded=1;whiteSpace=wrap;html=1;fontSize=11;labelBackgroundColor=none;fillColor=#23A2D9;fontColor=#ffffff;align=center;arcSize=10;strokeColor=#0E7DAD;metaEdit=1;resizable=0;points=[[0.25,0,0],[0.5,0,0],[0.75,0,0],[1,0.25,0],[1,0.5,0],[1,0.75,0],[0.75,1,0],[0.5,1,0],[0.25,1,0],[0,0.75,0],[0,0.5,0],[0,0.25,0]];" parent="1" vertex="1">
            <mxGeometry x="1380" y="530" width="240" height="120" as="geometry" />
          </mxCell>
        </object>
        <object placeholders="1" c4Type="ins-comp-settlement-db" c4Container="Container" c4Technology="PostgreSQL" c4Description="БД используется для хранения данных клиентов: ФИО, телефон, паспорт и др. Информация необходима для оформления страховок" label="&lt;font style=&quot;font-size: 16px&quot;&gt;&lt;b&gt;%c4Type%&lt;/b&gt;&lt;/font&gt;&lt;div&gt;[%c4Container%:&amp;nbsp;%c4Technology%]&lt;/div&gt;&lt;br&gt;&lt;div&gt;&lt;font style=&quot;font-size: 11px&quot;&gt;&lt;font color=&quot;#E6E6E6&quot;&gt;%c4Description%&lt;/font&gt;&lt;/div&gt;" id="TXG6mXQ_d2cR05oFhZtK-26">
          <mxCell style="shape=cylinder3;size=6.172056136592715;whiteSpace=wrap;html=1;boundedLbl=1;rounded=0;labelBackgroundColor=none;fillColor=#23A2D9;fontSize=12;fontColor=#ffffff;align=center;strokeColor=#0E7DAD;metaEdit=1;points=[[0.5,0,0],[1,0.25,0],[1,0.5,0],[1,0.75,0],[0.5,1,0],[0,0.75,0],[0,0.5,0],[0,0.25,0]];resizable=0;" parent="1" vertex="1">
            <mxGeometry x="1760" y="530" width="240" height="120" as="geometry" />
          </mxCell>
        </object>
        <object placeholders="1" c4Type="Relationship" c4Technology="TCP" c4Description="Работа с данными" label="&lt;div style=&quot;text-align: left&quot;&gt;&lt;div style=&quot;text-align: center&quot;&gt;&lt;b&gt;%c4Description%&lt;/b&gt;&lt;/div&gt;&lt;div style=&quot;text-align: center&quot;&gt;[%c4Technology%]&lt;/div&gt;&lt;/div&gt;" id="TXG6mXQ_d2cR05oFhZtK-27">
          <mxCell style="endArrow=blockThin;html=1;fontSize=10;fontColor=#404040;strokeWidth=1;endFill=1;strokeColor=#828282;elbow=vertical;metaEdit=1;endSize=14;startSize=14;jumpStyle=arc;jumpSize=16;rounded=0;edgeStyle=orthogonalEdgeStyle;" parent="1" source="TXG6mXQ_d2cR05oFhZtK-25" target="TXG6mXQ_d2cR05oFhZtK-26" edge="1">
            <mxGeometry x="-0.1429" width="240" relative="1" as="geometry">
              <mxPoint x="1510" y="1310" as="sourcePoint" />
              <mxPoint x="1510" y="1430" as="targetPoint" />
              <mxPoint as="offset" />
            </mxGeometry>
          </mxCell>
        </object>
        <object placeholders="1" c4Type="Relationship" c4Technology="REST" c4Description="Получение/сохранение &#xa;информации о клиентах" label="&lt;div style=&quot;text-align: left&quot;&gt;&lt;div style=&quot;text-align: center&quot;&gt;&lt;b&gt;%c4Description%&lt;/b&gt;&lt;/div&gt;&lt;div style=&quot;text-align: center&quot;&gt;[%c4Technology%]&lt;/div&gt;&lt;/div&gt;" id="TXG6mXQ_d2cR05oFhZtK-28">
          <mxCell style="endArrow=blockThin;html=1;fontSize=10;fontColor=#404040;strokeWidth=1;endFill=1;strokeColor=#828282;elbow=vertical;metaEdit=1;endSize=14;startSize=14;jumpStyle=arc;jumpSize=16;rounded=0;edgeStyle=orthogonalEdgeStyle;" parent="1" edge="1">
            <mxGeometry x="-0.0916" y="20" width="240" relative="1" as="geometry">
              <mxPoint x="1200" y="973" as="sourcePoint" />
              <mxPoint x="1380" y="620" as="targetPoint" />
              <mxPoint as="offset" />
              <Array as="points">
                <mxPoint x="1300" y="973" />
                <mxPoint x="1300" y="620" />
                <mxPoint x="1381" y="620" />
              </Array>
            </mxGeometry>
          </mxCell>
        </object>
        <object placeholders="1" c4Type="Relationship" c4Technology="REST" c4Description="Получение/сохранение&#xa; информации о клиентах" label="&lt;div style=&quot;text-align: left&quot;&gt;&lt;div style=&quot;text-align: center&quot;&gt;&lt;b&gt;%c4Description%&lt;/b&gt;&lt;/div&gt;&lt;div style=&quot;text-align: center&quot;&gt;[%c4Technology%]&lt;/div&gt;&lt;/div&gt;" id="TXG6mXQ_d2cR05oFhZtK-29">
          <mxCell style="endArrow=blockThin;html=1;fontSize=10;fontColor=#404040;strokeWidth=1;endFill=1;strokeColor=#828282;elbow=vertical;metaEdit=1;endSize=14;startSize=14;jumpStyle=arc;jumpSize=16;rounded=0;edgeStyle=orthogonalEdgeStyle;entryX=0;entryY=0.25;entryDx=0;entryDy=0;entryPerimeter=0;exitX=1.006;exitY=0.466;exitDx=0;exitDy=0;exitPerimeter=0;" parent="1" source="TXG6mXQ_d2cR05oFhZtK-4" target="TXG6mXQ_d2cR05oFhZtK-25" edge="1">
            <mxGeometry x="0.214" width="240" relative="1" as="geometry">
              <mxPoint x="1210" y="970" as="sourcePoint" />
              <mxPoint x="1370" y="730" as="targetPoint" />
              <mxPoint as="offset" />
              <Array as="points">
                <mxPoint x="1240" y="665" />
                <mxPoint x="1240" y="560" />
              </Array>
            </mxGeometry>
          </mxCell>
        </object>
        <object placeholders="1" c4Name="Kafka" c4Type="Container" c4Technology="Apache Kafka" c4Description="Шина событий, используется для &#xa;асинхронного взаимодействия между компонентами" label="&lt;font style=&quot;font-size: 16px&quot;&gt;&lt;b&gt;%c4Name%&lt;/b&gt;&lt;/font&gt;&lt;div&gt;[%c4Type%:&amp;nbsp;%c4Technology%]&lt;/div&gt;&lt;br&gt;&lt;div&gt;&lt;font style=&quot;font-size: 11px&quot;&gt;&lt;font color=&quot;#E6E6E6&quot;&gt;%c4Description%&lt;/font&gt;&lt;/div&gt;" id="TXG6mXQ_d2cR05oFhZtK-31">
          <mxCell style="shape=cylinder3;size=15;direction=south;whiteSpace=wrap;html=1;boundedLbl=1;rounded=0;labelBackgroundColor=none;fillColor=#23A2D9;fontSize=12;fontColor=#ffffff;align=center;strokeColor=#0E7DAD;metaEdit=1;points=[[0.5,0,0],[1,0.25,0],[1,0.5,0],[1,0.75,0],[0.5,1,0],[0,0.75,0],[0,0.5,0],[0,0.25,0]];resizable=0;" parent="1" vertex="1">
            <mxGeometry x="1240" y="1088" width="240" height="120" as="geometry" />
          </mxCell>
        </object>
        <object placeholders="1" c4Type="Relationship" c4Technology="insurance.data.changed" c4Description="Публикация ивента &#xa;об изменении условий &#xa;страховыми компаниями" label="&lt;div style=&quot;text-align: left&quot;&gt;&lt;div style=&quot;text-align: center&quot;&gt;&lt;b&gt;%c4Description%&lt;/b&gt;&lt;/div&gt;&lt;div style=&quot;text-align: center&quot;&gt;[%c4Technology%]&lt;/div&gt;&lt;/div&gt;" id="TXG6mXQ_d2cR05oFhZtK-32">
          <mxCell style="endArrow=blockThin;html=1;fontSize=10;fontColor=#404040;strokeWidth=1;endFill=1;strokeColor=#828282;elbow=vertical;metaEdit=1;endSize=14;startSize=14;jumpStyle=arc;jumpSize=16;rounded=0;edgeStyle=orthogonalEdgeStyle;exitX=0.513;exitY=0.996;exitDx=0;exitDy=0;exitPerimeter=0;labelBackgroundColor=light-dark(#ffffff, #ededed);entryX=0.74;entryY=0.006;entryDx=0;entryDy=0;entryPerimeter=0;" parent="1" source="TXG6mXQ_d2cR05oFhZtK-14" target="TXG6mXQ_d2cR05oFhZtK-31" edge="1">
            <mxGeometry x="-0.2996" width="240" relative="1" as="geometry">
              <mxPoint x="1569" y="1060" as="sourcePoint" />
              <mxPoint x="1480" y="1177" as="targetPoint" />
              <Array as="points">
                <mxPoint x="1653" y="1112" />
                <mxPoint x="1653" y="1177" />
              </Array>
              <mxPoint as="offset" />
            </mxGeometry>
          </mxCell>
        </object>
        <object placeholders="1" c4Type="Relationship" c4Technology="insurance.application.created" c4Description="Публикация ивента &#xa;оформления новой &#xa;страховки пользователем" label="&lt;div style=&quot;text-align: left&quot;&gt;&lt;div style=&quot;text-align: center&quot;&gt;&lt;b&gt;%c4Description%&lt;/b&gt;&lt;/div&gt;&lt;div style=&quot;text-align: center&quot;&gt;[%c4Technology%]&lt;/div&gt;&lt;/div&gt;" id="TXG6mXQ_d2cR05oFhZtK-33">
          <mxCell style="endArrow=blockThin;html=1;fontSize=10;fontColor=#404040;strokeWidth=1;endFill=1;strokeColor=#828282;elbow=vertical;metaEdit=1;endSize=14;startSize=14;jumpStyle=arc;jumpSize=16;rounded=0;edgeStyle=orthogonalEdgeStyle;entryX=0.5;entryY=1;entryDx=0;entryDy=0;entryPerimeter=0;exitX=0.718;exitY=1.01;exitDx=0;exitDy=0;exitPerimeter=0;labelBackgroundColor=light-dark(#ffffff, #ededed);" parent="1" source="TXG6mXQ_d2cR05oFhZtK-3" target="TXG6mXQ_d2cR05oFhZtK-31" edge="1">
            <mxGeometry x="-0.1002" width="240" relative="1" as="geometry">
              <mxPoint x="1133" y="1074" as="sourcePoint" />
              <mxPoint x="1373" y="1074" as="targetPoint" />
              <Array as="points">
                <mxPoint x="1132" y="1148" />
              </Array>
              <mxPoint as="offset" />
            </mxGeometry>
          </mxCell>
        </object>
        <object placeholders="1" c4Type="Relationship" c4Technology="insurance.data.changed" c4Description="Чтение ивента &#xa;об изменении условий &#xa;страховыми компаниями" label="&lt;div style=&quot;text-align: left&quot;&gt;&lt;div style=&quot;text-align: center&quot;&gt;&lt;b&gt;%c4Description%&lt;/b&gt;&lt;/div&gt;&lt;div style=&quot;text-align: center&quot;&gt;[%c4Technology%]&lt;/div&gt;&lt;/div&gt;" id="TXG6mXQ_d2cR05oFhZtK-34">
          <mxCell style="endArrow=none;html=1;fontSize=10;fontColor=#404040;strokeWidth=1;endFill=0;strokeColor=#828282;elbow=vertical;metaEdit=1;endSize=14;startSize=14;jumpStyle=arc;jumpSize=16;rounded=0;edgeStyle=orthogonalEdgeStyle;startArrow=blockThin;startFill=1;entryX=0;entryY=0.75;entryDx=0;entryDy=0;entryPerimeter=0;labelBackgroundColor=light-dark(#ffffff, #ededed);exitX=1;exitY=0.75;exitDx=0;exitDy=0;exitPerimeter=0;" parent="1" target="TXG6mXQ_d2cR05oFhZtK-31" edge="1" source="TXG6mXQ_d2cR05oFhZtK-3">
            <mxGeometry x="0.6456" y="-2" width="240" relative="1" as="geometry">
              <mxPoint x="1203" y="1004" as="sourcePoint" />
              <mxPoint x="1363" y="1084" as="targetPoint" />
              <Array as="points">
                <mxPoint x="1300" y="1030" />
              </Array>
              <mxPoint as="offset" />
            </mxGeometry>
          </mxCell>
        </object>
        <object placeholders="1" c4Type="Relationship" c4Technology="insurance.application.created" c4Description="Чтение ивента &#xa;оформления новой&#xa;страховки пользователем" label="&lt;div style=&quot;text-align: left&quot;&gt;&lt;div style=&quot;text-align: center&quot;&gt;&lt;b&gt;%c4Description%&lt;/b&gt;&lt;/div&gt;&lt;div style=&quot;text-align: center&quot;&gt;[%c4Technology%]&lt;/div&gt;&lt;/div&gt;" id="TXG6mXQ_d2cR05oFhZtK-35">
          <mxCell style="endArrow=none;html=1;fontSize=10;fontColor=#404040;strokeWidth=1;endFill=0;strokeColor=#828282;elbow=vertical;metaEdit=1;endSize=14;startSize=14;jumpStyle=arc;jumpSize=16;rounded=0;edgeStyle=orthogonalEdgeStyle;exitX=0;exitY=0.5;exitDx=0;exitDy=0;exitPerimeter=0;startArrow=blockThin;startFill=1;entryX=1.001;entryY=0.485;entryDx=0;entryDy=0;entryPerimeter=0;labelBackgroundColor=light-dark(#ffffff, #ededed);" parent="1" source="TXG6mXQ_d2cR05oFhZtK-16" target="TXG6mXQ_d2cR05oFhZtK-31" edge="1">
            <mxGeometry x="0.2782" width="240" relative="1" as="geometry">
              <mxPoint x="1226" y="1691" as="sourcePoint" />
              <mxPoint x="1363" y="1214" as="targetPoint" />
              <mxPoint y="1" as="offset" />
            </mxGeometry>
          </mxCell>
        </object>
        <object placeholders="1" c4Name="osago-aggregator" c4Type="Container" c4Technology="Kotlin, SpringBoot" c4Description="Сервис для интеграции со страховыми компаниями с целью получения информации по ОСАГО." label="&lt;font style=&quot;font-size: 16px&quot;&gt;&lt;b&gt;%c4Name%&lt;/b&gt;&lt;/font&gt;&lt;div&gt;[%c4Type%: %c4Technology%]&lt;/div&gt;&lt;br&gt;&lt;div&gt;&lt;font style=&quot;font-size: 11px&quot;&gt;&lt;font color=&quot;#E6E6E6&quot;&gt;%c4Description%&lt;/font&gt;&lt;/div&gt;" id="z869cuC31rpkVMOC-xXi-1">
          <mxCell style="rounded=1;whiteSpace=wrap;html=1;fontSize=11;labelBackgroundColor=none;fillColor=#23A2D9;fontColor=#ffffff;align=center;arcSize=10;strokeColor=#0E7DAD;metaEdit=1;resizable=0;points=[[0.25,0,0],[0.5,0,0],[0.75,0,0],[1,0.25,0],[1,0.5,0],[1,0.75,0],[0.75,1,0],[0.5,1,0],[0.25,1,0],[0,0.75,0],[0,0.5,0],[0,0.25,0]];" vertex="1" parent="1">
            <mxGeometry x="1537" y="700" width="240" height="120" as="geometry" />
          </mxCell>
        </object>
        <object placeholders="1" c4Type="Relationship" c4Technology="REST" c4Description="Получить предложение &#xa;по заявке ОСАГО" label="&lt;div style=&quot;text-align: left&quot;&gt;&lt;div style=&quot;text-align: center&quot;&gt;&lt;b&gt;%c4Description%&lt;/b&gt;&lt;/div&gt;&lt;div style=&quot;text-align: center&quot;&gt;[%c4Technology%]&lt;/div&gt;&lt;/div&gt;" id="z869cuC31rpkVMOC-xXi-2">
          <mxCell style="endArrow=blockThin;html=1;fontSize=10;fontColor=#404040;strokeWidth=1;endFill=1;strokeColor=#828282;elbow=vertical;metaEdit=1;endSize=14;startSize=14;jumpStyle=arc;jumpSize=16;rounded=0;edgeStyle=orthogonalEdgeStyle;labelBackgroundColor=light-dark(#9df09f, #ededed);entryX=0;entryY=0.25;entryDx=0;entryDy=0;entryPerimeter=0;" edge="1" parent="1" target="z869cuC31rpkVMOC-xXi-1">
            <mxGeometry x="0.5542" width="240" relative="1" as="geometry">
              <mxPoint x="1300" y="973" as="sourcePoint" />
              <mxPoint x="1520" y="810" as="targetPoint" />
              <mxPoint as="offset" />
              <Array as="points">
                <mxPoint x="1350" y="973" />
                <mxPoint x="1350" y="730" />
              </Array>
            </mxGeometry>
          </mxCell>
        </object>
        <object placeholders="1" c4Type="Relationship" c4Technology="REST" c4Description="Получить предложение &#xa;по заявке ОСАГО" label="&lt;div style=&quot;text-align: left&quot;&gt;&lt;div style=&quot;text-align: center&quot;&gt;&lt;b&gt;%c4Description%&lt;/b&gt;&lt;/div&gt;&lt;div style=&quot;text-align: center&quot;&gt;[%c4Technology%]&lt;/div&gt;&lt;/div&gt;" id="z869cuC31rpkVMOC-xXi-3">
          <mxCell style="endArrow=blockThin;html=1;fontSize=10;fontColor=#404040;strokeWidth=1;endFill=1;strokeColor=#828282;elbow=vertical;metaEdit=1;endSize=14;startSize=14;jumpStyle=arc;jumpSize=16;rounded=0;edgeStyle=orthogonalEdgeStyle;labelBackgroundColor=light-dark(#9df09f, #ededed);entryX=0.75;entryY=0;entryDx=0;entryDy=0;entryPerimeter=0;exitX=1;exitY=0.25;exitDx=0;exitDy=0;exitPerimeter=0;" edge="1" parent="1" source="z869cuC31rpkVMOC-xXi-1" target="TXG6mXQ_d2cR05oFhZtK-11">
            <mxGeometry x="-0.107" width="240" relative="1" as="geometry">
              <mxPoint x="1790" y="810" as="sourcePoint" />
              <mxPoint x="2270" y="1047" as="targetPoint" />
              <mxPoint as="offset" />
              <Array as="points">
                <mxPoint x="2270" y="730" />
              </Array>
            </mxGeometry>
          </mxCell>
        </object>
        <object placeholders="1" c4Type="Relationship" c4Technology="osago.solution.published" c4Description="Чтение ивента &#xa;о результате решения &#xa;по ОСАГО" label="&lt;div style=&quot;text-align: left&quot;&gt;&lt;div style=&quot;text-align: center&quot;&gt;&lt;b&gt;%c4Description%&lt;/b&gt;&lt;/div&gt;&lt;div style=&quot;text-align: center&quot;&gt;[%c4Technology%]&lt;/div&gt;&lt;/div&gt;" id="z869cuC31rpkVMOC-xXi-4">
          <mxCell style="endArrow=none;html=1;fontSize=10;fontColor=#404040;strokeWidth=1;endFill=0;strokeColor=#828282;elbow=vertical;metaEdit=1;endSize=14;startSize=14;jumpStyle=arc;jumpSize=16;rounded=0;edgeStyle=orthogonalEdgeStyle;startArrow=blockThin;startFill=1;entryX=0;entryY=0.5;entryDx=0;entryDy=0;entryPerimeter=0;labelBackgroundColor=light-dark(#9ef09f, #ededed);exitX=1;exitY=0.75;exitDx=0;exitDy=0;exitPerimeter=0;" edge="1" parent="1" target="TXG6mXQ_d2cR05oFhZtK-31">
            <mxGeometry x="0.3094" width="240" relative="1" as="geometry">
              <mxPoint x="1198" y="993" as="sourcePoint" />
              <mxPoint x="1298" y="1051" as="targetPoint" />
              <Array as="points">
                <mxPoint x="1385" y="993" />
                <mxPoint x="1385" y="1088" />
              </Array>
              <mxPoint as="offset" />
            </mxGeometry>
          </mxCell>
        </object>
        <object placeholders="1" c4Type="Relationship" c4Technology="osago.solution.published" c4Description="Публикация ивента &#xa;о результате решения &#xa;по ОСАГО" label="&lt;div style=&quot;text-align: left&quot;&gt;&lt;div style=&quot;text-align: center&quot;&gt;&lt;b&gt;%c4Description%&lt;/b&gt;&lt;/div&gt;&lt;div style=&quot;text-align: center&quot;&gt;[%c4Technology%]&lt;/div&gt;&lt;/div&gt;" id="z869cuC31rpkVMOC-xXi-5">
          <mxCell style="endArrow=none;html=1;fontSize=10;fontColor=#404040;strokeWidth=1;endFill=0;strokeColor=#828282;elbow=vertical;metaEdit=1;endSize=14;startSize=14;jumpStyle=arc;jumpSize=16;rounded=0;edgeStyle=orthogonalEdgeStyle;startArrow=blockThin;startFill=1;labelBackgroundColor=light-dark(#9ef09f, #ededed);exitX=0.28;exitY=0.006;exitDx=0;exitDy=0;exitPerimeter=0;entryX=0.25;entryY=1;entryDx=0;entryDy=0;entryPerimeter=0;" edge="1" parent="1" source="TXG6mXQ_d2cR05oFhZtK-31" target="z869cuC31rpkVMOC-xXi-1">
            <mxGeometry x="0.2016" width="240" relative="1" as="geometry">
              <mxPoint x="1475" y="1121" as="sourcePoint" />
              <mxPoint x="1537" y="961" as="targetPoint" />
              <Array as="points">
                <mxPoint x="1513" y="1122" />
                <mxPoint x="1513" y="900" />
                <mxPoint x="1600" y="900" />
                <mxPoint x="1600" y="820" />
              </Array>
              <mxPoint as="offset" />
            </mxGeometry>
          </mxCell>
        </object>
        <object placeholders="1" c4Type="Relationship" c4Technology="REST" c4Description="Создать заявку &#xa;на ОСАГО" label="&lt;div style=&quot;text-align: left&quot;&gt;&lt;div style=&quot;text-align: center&quot;&gt;&lt;b&gt;%c4Description%&lt;/b&gt;&lt;/div&gt;&lt;div style=&quot;text-align: center&quot;&gt;[%c4Technology%]&lt;/div&gt;&lt;/div&gt;" id="z869cuC31rpkVMOC-xXi-6">
          <mxCell style="endArrow=blockThin;html=1;fontSize=10;fontColor=#404040;strokeWidth=1;endFill=1;strokeColor=#828282;elbow=vertical;metaEdit=1;endSize=14;startSize=14;jumpStyle=arc;jumpSize=16;rounded=0;edgeStyle=orthogonalEdgeStyle;labelBackgroundColor=light-dark(#9df09f, #ededed);entryX=0.223;entryY=-0.008;entryDx=0;entryDy=0;entryPerimeter=0;exitX=1;exitY=0.75;exitDx=0;exitDy=0;exitPerimeter=0;" edge="1" parent="1" source="z869cuC31rpkVMOC-xXi-1" target="TXG6mXQ_d2cR05oFhZtK-11">
            <mxGeometry x="0.1717" width="240" relative="1" as="geometry">
              <mxPoint x="1800" y="910" as="sourcePoint" />
              <mxPoint x="2143" y="1050" as="targetPoint" />
              <mxPoint as="offset" />
              <Array as="points">
                <mxPoint x="2144" y="790" />
              </Array>
            </mxGeometry>
          </mxCell>
        </object>
        <object placeholders="1" c4Type="Relationship" c4Technology="REST" c4Description="Создать заявку &#xa;на ОСАГО" label="&lt;div style=&quot;text-align: left&quot;&gt;&lt;div style=&quot;text-align: center&quot;&gt;&lt;b&gt;%c4Description%&lt;/b&gt;&lt;/div&gt;&lt;div style=&quot;text-align: center&quot;&gt;[%c4Technology%]&lt;/div&gt;&lt;/div&gt;" id="z869cuC31rpkVMOC-xXi-7">
          <mxCell style="endArrow=blockThin;html=1;fontSize=10;fontColor=#404040;strokeWidth=1;endFill=1;strokeColor=#828282;elbow=vertical;metaEdit=1;endSize=14;startSize=14;jumpStyle=arc;jumpSize=16;rounded=0;edgeStyle=orthogonalEdgeStyle;labelBackgroundColor=light-dark(#9df09f, #ededed);entryX=0.003;entryY=0.67;entryDx=0;entryDy=0;entryPerimeter=0;" edge="1" parent="1" target="z869cuC31rpkVMOC-xXi-1">
            <mxGeometry x="0.319" width="240" relative="1" as="geometry">
              <mxPoint x="1350" y="909" as="sourcePoint" />
              <mxPoint x="1520" y="880" as="targetPoint" />
              <mxPoint as="offset" />
              <Array as="points">
                <mxPoint x="1350" y="780" />
              </Array>
            </mxGeometry>
          </mxCell>
        </object>
        <object placeholders="1" c4Type="aggregator-db" c4Container="Container" c4Technology="Redis" c4Description="Используется для хранения агрегированных данных, для отслеживания изменений в страховых компаний, для аутбокса" label="&lt;font style=&quot;font-size: 16px&quot;&gt;&lt;b&gt;%c4Type%&lt;/b&gt;&lt;/font&gt;&lt;div&gt;[%c4Container%:&amp;nbsp;%c4Technology%]&lt;/div&gt;&lt;br&gt;&lt;div&gt;&lt;font style=&quot;font-size: 11px&quot;&gt;&lt;font color=&quot;#E6E6E6&quot;&gt;%c4Description%&lt;/font&gt;&lt;/div&gt;" id="z869cuC31rpkVMOC-xXi-11">
          <mxCell style="shape=cylinder3;size=6.172056136592715;whiteSpace=wrap;html=1;boundedLbl=1;rounded=0;labelBackgroundColor=none;fillColor=#23A2D9;fontSize=12;fontColor=#ffffff;align=center;strokeColor=#0E7DAD;metaEdit=1;points=[[0.5,0,0],[1,0.25,0],[1,0.5,0],[1,0.75,0],[0.5,1,0],[0,0.75,0],[0,0.5,0],[0,0.25,0]];resizable=0;" vertex="1" parent="1">
            <mxGeometry x="1760" y="840" width="240" height="120" as="geometry" />
          </mxCell>
        </object>
        <object placeholders="1" c4Type="Relationship" c4Technology="TCP" c4Description="Работа с данными" label="&lt;div style=&quot;text-align: left&quot;&gt;&lt;div style=&quot;text-align: center&quot;&gt;&lt;b&gt;%c4Description%&lt;/b&gt;&lt;/div&gt;&lt;div style=&quot;text-align: center&quot;&gt;[%c4Technology%]&lt;/div&gt;&lt;/div&gt;" id="z869cuC31rpkVMOC-xXi-12">
          <mxCell style="endArrow=blockThin;html=1;fontSize=10;fontColor=#404040;strokeWidth=1;endFill=1;strokeColor=#828282;elbow=vertical;metaEdit=1;endSize=14;startSize=14;jumpStyle=arc;jumpSize=16;rounded=0;edgeStyle=orthogonalEdgeStyle;exitX=0.588;exitY=0.999;exitDx=0;exitDy=0;exitPerimeter=0;" edge="1" parent="1" source="z869cuC31rpkVMOC-xXi-1">
            <mxGeometry x="-0.1429" width="240" relative="1" as="geometry">
              <mxPoint x="1630" y="940" as="sourcePoint" />
              <mxPoint x="1760" y="880" as="targetPoint" />
              <mxPoint as="offset" />
              <Array as="points">
                <mxPoint x="1678" y="880" />
              </Array>
            </mxGeometry>
          </mxCell>
        </object>
        <object placeholders="1" c4Type="Relationship" c4Technology="TCP" c4Description="Работа с данными" label="&lt;div style=&quot;text-align: left&quot;&gt;&lt;div style=&quot;text-align: center&quot;&gt;&lt;b&gt;%c4Description%&lt;/b&gt;&lt;/div&gt;&lt;div style=&quot;text-align: center&quot;&gt;[%c4Technology%]&lt;/div&gt;&lt;/div&gt;" id="z869cuC31rpkVMOC-xXi-13">
          <mxCell style="endArrow=blockThin;html=1;fontSize=10;fontColor=#404040;strokeWidth=1;endFill=1;strokeColor=#828282;elbow=vertical;metaEdit=1;endSize=14;startSize=14;jumpStyle=arc;jumpSize=16;rounded=0;edgeStyle=orthogonalEdgeStyle;exitX=0.596;exitY=0.006;exitDx=0;exitDy=0;exitPerimeter=0;entryX=0;entryY=0.75;entryDx=0;entryDy=0;entryPerimeter=0;" edge="1" parent="1" source="TXG6mXQ_d2cR05oFhZtK-14" target="z869cuC31rpkVMOC-xXi-11">
            <mxGeometry x="-0.1429" width="240" relative="1" as="geometry">
              <mxPoint x="1688" y="830" as="sourcePoint" />
              <mxPoint x="1770" y="890" as="targetPoint" />
              <mxPoint as="offset" />
              <Array as="points">
                <mxPoint x="1680" y="930" />
              </Array>
            </mxGeometry>
          </mxCell>
        </object>
      </root>
    </mxGraphModel>
  </diagram>
</mxfile>
